<svg id="visual" viewBox="0 0 1920 200" width="1920" height="200" xmlns="http://www.w3.org/2000/svg"
     version="1.1">
    <rect x="0" y="0" width="1920" height="200" fill="#212529"></rect>
    <path
        d="M0 149L45.7 144C91.3 139 182.7 129 274.2 128.8C365.7 128.7 457.3 138.3 548.8 138.7C640.3 139 731.7 130 823 127.8C914.3 125.7 1005.7 130.3 1097 135.2C1188.3 140 1279.7 145 1371.2 142.2C1462.7 139.3 1554.3 128.7 1645.8 130.8C1737.3 133 1828.7 148 1874.3 155.5L1920 163L1920 0L1874.3 0C1828.7 0 1737.3 0 1645.8 0C1554.3 0 1462.7 0 1371.2 0C1279.7 0 1188.3 0 1097 0C1005.7 0 914.3 0 823 0C731.7 0 640.3 0 548.8 0C457.3 0 365.7 0 274.2 0C182.7 0 91.3 0 45.7 0L0 0Z"
        fill="#40bf7e"></path>
    <path
        d="M0 85L45.7 93.3C91.3 101.7 182.7 118.3 274.2 124.2C365.7 130 457.3 125 548.8 117C640.3 109 731.7 98 823 94.2C914.3 90.3 1005.7 93.7 1097 100.2C1188.3 106.7 1279.7 116.3 1371.2 116.2C1462.7 116 1554.3 106 1645.8 102.8C1737.3 99.7 1828.7 103.3 1874.3 105.2L1920 107L1920 0L1874.3 0C1828.7 0 1737.3 0 1645.8 0C1554.3 0 1462.7 0 1371.2 0C1279.7 0 1188.3 0 1097 0C1005.7 0 914.3 0 823 0C731.7 0 640.3 0 548.8 0C457.3 0 365.7 0 274.2 0C182.7 0 91.3 0 45.7 0L0 0Z"
        fill="#79d09d"></path>
    <path
        d="M0 83L45.7 79.2C91.3 75.3 182.7 67.7 274.2 68.3C365.7 69 457.3 78 548.8 82.8C640.3 87.7 731.7 88.3 823 89.8C914.3 91.3 1005.7 93.7 1097 90.2C1188.3 86.7 1279.7 77.3 1371.2 74.2C1462.7 71 1554.3 74 1645.8 79.5C1737.3 85 1828.7 93 1874.3 97L1920 101L1920 0L1874.3 0C1828.7 0 1737.3 0 1645.8 0C1554.3 0 1462.7 0 1371.2 0C1279.7 0 1188.3 0 1097 0C1005.7 0 914.3 0 823 0C731.7 0 640.3 0 548.8 0C457.3 0 365.7 0 274.2 0C182.7 0 91.3 0 45.7 0L0 0Z"
        fill="#a8e0bd"></path>
    <path
        d="M0 71L45.7 67.8C91.3 64.7 182.7 58.3 274.2 54.8C365.7 51.3 457.3 50.7 548.8 53.7C640.3 56.7 731.7 63.3 823 64.5C914.3 65.7 1005.7 61.3 1097 60.7C1188.3 60 1279.7 63 1371.2 59.7C1462.7 56.3 1554.3 46.7 1645.8 47.7C1737.3 48.7 1828.7 60.3 1874.3 66.2L1920 72L1920 0L1874.3 0C1828.7 0 1737.3 0 1645.8 0C1554.3 0 1462.7 0 1371.2 0C1279.7 0 1188.3 0 1097 0C1005.7 0 914.3 0 823 0C731.7 0 640.3 0 548.8 0C457.3 0 365.7 0 274.2 0C182.7 0 91.3 0 45.7 0L0 0Z"
        fill="#d4f0de"></path>
    <path
        d="M0 28L45.7 26.7C91.3 25.3 182.7 22.7 274.2 22.8C365.7 23 457.3 26 548.8 30C640.3 34 731.7 39 823 36.8C914.3 34.7 1005.7 25.3 1097 24C1188.3 22.7 1279.7 29.3 1371.2 31.5C1462.7 33.7 1554.3 31.3 1645.8 29.8C1737.3 28.3 1828.7 27.7 1874.3 27.3L1920 27L1920 0L1874.3 0C1828.7 0 1737.3 0 1645.8 0C1554.3 0 1462.7 0 1371.2 0C1279.7 0 1188.3 0 1097 0C1005.7 0 914.3 0 823 0C731.7 0 640.3 0 548.8 0C457.3 0 365.7 0 274.2 0C182.7 0 91.3 0 45.7 0L0 0Z"
        fill="#f8f9fa"></path>
</svg>
